<?xml version="1.0" encoding="utf-8"?>
<!-- Generator: Adobe Illustrator 25.0.1, SVG Export Plug-In . SVG Version: 6.00 Build 0)  -->
<svg version="1.1" id="Layer_1" xmlns="http://www.w3.org/2000/svg" xmlns:xlink="http://www.w3.org/1999/xlink" x="0px" y="0px"
	 width="16px" height="16px" viewBox="0 0 16 16" enable-background="new 0 0 16 16" xml:space="preserve">
<g>
	<polygon fill-rule="evenodd" clip-rule="evenodd" fill="#F4AF3D" fill-opacity="0.7" points="1,16 16,16 16,9 1,9 	"/>
	<polygon fill-rule="evenodd" clip-rule="evenodd" fill="#9AA7B0" fill-opacity="0.8" points="7,1 3,5 7,5 	"/>
	<polygon fill-rule="evenodd" clip-rule="evenodd" fill="#9AA7B0" fill-opacity="0.8" points="8,1 8,6 3,6 3,8 13,8 13,1 	"/>
	<path fill-rule="evenodd" clip-rule="evenodd" fill="#231F20" fill-opacity="0.7" d="M3.5,11h2v-1h-3v5h1v-2h1.8v-1H3.5V11z"/>
	<polygon fill-rule="evenodd" clip-rule="evenodd" fill="#231F20" fill-opacity="0.7" points="12,10 13,10 13,14 15.5,14 15.5,15 
		12,15 	"/>
	<polygon fill-rule="evenodd" clip-rule="evenodd" fill="#231F20" fill-opacity="0.7" points="8.2,11 6.7,11 6.7,10 10.7,10 
		10.7,11 9.2,11 9.2,15 8.2,15 	"/>
</g>
</svg>
